<svg width="33" height="38" viewBox="0 0 33 38" fill="none" xmlns="http://www.w3.org/2000/svg">
<path d="M14 26H20V31H14V26Z" fill="black"/>
<path d="M14 9H20V24H14V9Z" fill="black"/>
<path d="M0 34.2245L0 38C0 38 0.490599 38 1.09574 38H33C33 38 33 37.4518 33 36.7755C33 36.0993 33 34.9007 33 34.2245C33 33.5482 33 33 33 33C33 33 0 33 0 33C0 33 0 33.5482 0 34.2245Z" fill="black"/>
<path d="M2.35376 18L5.2891 9.16312L8.22445 18H10.5781L6.83806 6.74066H26.1619L22.4219 18H24.7755L27.7109 9.16312L30.6463 18H33L28.7701 5.26601C28.6181 4.80854 28.1915 4.5 27.711 4.5H19.664C19.7897 4.14665 19.8587 3.76648 19.8587 3.37033C19.8587 1.51193 18.352 0 16.5 0C14.6481 0 13.1414 1.51193 13.1414 3.37033C13.1414 3.76648 13.2104 4.14665 13.3361 4.5H5.2891C4.80851 4.5 4.38196 4.80854 4.22997 5.26601L0 18H2.35376Z" fill="black"/>
<path d="M0 20C0.519981 22.849 2.78837 25 5.5 25C8.21163 25 10.4799 22.849 11 20H0Z" fill="black"/>
<path d="M22 20C22.52 22.849 24.7884 25 27.5 25C30.2116 25 32.4799 22.849 33 20H22Z" fill="black"/>
</svg>
