<svg width="15" height="14" viewBox="0 0 15 14" fill="none" xmlns="http://www.w3.org/2000/svg">
<path d="M14.125 1.54688V11.3906C14.125 11.9648 13.6738 12.375 13.1406 12.375C12.5664 12.375 12.1562 11.9648 12.1562 11.3906V3.92578L2.68164 13.4004C2.47656 13.6055 2.23047 13.6875 1.98438 13.6875C1.69727 13.6875 1.45117 13.6055 1.28711 13.4004C0.876953 13.0312 0.876953 12.416 1.28711 12.0469L10.7617 2.53125H3.29688C2.72266 2.53125 2.3125 2.12109 2.3125 1.54688C2.3125 1.01367 2.72266 0.5625 3.29688 0.5625H13.1406C13.6738 0.5625 14.125 1.01367 14.125 1.54688Z" fill="#FF5C31"/>
</svg>
