<svg width="16" height="14" viewBox="0 0 16 14" fill="none" xmlns="http://www.w3.org/2000/svg">
<path d="M8 0C3.5625 0 0 2.90625 0 6.5C0 8.03125 0.6875 9.46875 1.78125 10.5625C1.40625 12.1562 0.09375 13.5625 0.09375 13.5625C0 13.625 0 13.75 0.03125 13.8438C0.0625 13.9375 0.15625 14 0.25 14C2.34375 14 3.84375 13 4.65625 12.375C5.6875 12.75 6.8125 13 8 13C12.4375 13 15.9688 10.0625 15.9688 6.5C15.9688 2.9375 12.4062 0 8 0ZM3.96875 7.5C3.40625 7.5 2.96875 7.03125 2.96875 6.5C2.96875 6 3.40625 5.5 3.96875 5.5C4.5 5.5 4.96875 5.96875 4.96875 6.5C4.96875 7.0625 4.53125 7.5 3.96875 7.5ZM8 7.5C7.4375 7.5 7 7.03125 7 6.5C7 6 7.46875 5.5 8 5.5C8.5 5.5 8.96875 5.96875 8.96875 6.5C8.96875 7.0625 8.53125 7.5 8 7.5ZM11.9688 7.5C11.4062 7.5 10.9688 7.03125 10.9688 6.5C10.9688 6 11.4062 5.5 11.9688 5.5C12.5 5.5 12.9688 5.96875 12.9688 6.5C12.9688 7.0625 12.5312 7.5 11.9688 7.5Z" fill="#FF5C31"/>
</svg>
