<svg width="47" height="40" viewBox="0 0 47 40" fill="none" xmlns="http://www.w3.org/2000/svg">
<path fill-rule="evenodd" clip-rule="evenodd" d="M9.29443 20.7176C9.60042 19.5139 10.0671 18.3565 10.6943 17.2454L0 11.8519L23.5 0L47 11.8519L44.0625 13.3333V28.4028C44.5215 28.5725 44.9269 28.7886 45.2788 29.0509C45.6307 29.3133 45.9367 29.6373 46.1968 30.0231C46.4569 30.409 46.6558 30.8179 46.7935 31.25C46.9312 31.6821 47 32.1296 47 32.5926V40H38.1875V32.5926C38.2028 32.1142 38.2716 31.659 38.394 31.2269C38.5164 30.7948 38.7153 30.3935 38.9907 30.0231C39.2661 29.6528 39.5798 29.3287 39.9316 29.0509C40.2835 28.7731 40.6813 28.5571 41.125 28.4028V14.8148L36.3057 17.2454C36.7952 18.0787 37.1624 18.8735 37.4072 19.6296C37.652 20.3858 37.8356 21.142 37.958 21.8981C38.0804 22.6543 38.1493 23.4336 38.1646 24.2361C38.1799 25.0386 38.1875 25.9028 38.1875 26.8287L23.5 34.2593L8.8125 26.8287V24.4444C8.8278 23.1636 8.98845 21.9213 9.29443 20.7176ZM41.561 31.5509C41.2703 31.8441 41.125 32.1914 41.125 32.5926V37.037H44.0625V32.5926C44.0625 32.1914 43.9172 31.8441 43.6265 31.5509C43.3358 31.2577 42.9915 31.1111 42.5938 31.1111C42.196 31.1111 41.8517 31.2577 41.561 31.5509ZM12.0942 21.6898C11.8647 22.7083 11.75 23.8117 11.75 25L23.5 30.9259L35.25 25V24.4444C35.2347 23.3951 35.097 22.3765 34.8369 21.3889C34.5768 20.4012 34.1943 19.4599 33.6895 18.5648L23.5 23.7037L13.3105 18.5648C12.7292 19.6296 12.3237 20.6713 12.0942 21.6898Z" fill="#1D1D1D"/>
</svg>
