<svg width="18" height="18" viewBox="0 0 18 18" fill="none" xmlns="http://www.w3.org/2000/svg">
<path fill-rule="evenodd" clip-rule="evenodd" d="M9.5 18C9.5 18 3 9.783 3 6.3C3 4.04923 4.23889 1.96943 6.25 0.84404C8.26111 -0.281347 10.7389 -0.281347 12.75 0.84404C14.7611 1.96943 16 4.04923 16 6.3C16 9.783 9.5 18 9.5 18ZM9.5 8.1C10.5257 8.1 11.3571 7.29411 11.3571 6.3C11.3571 5.30589 10.5257 4.5 9.5 4.5C8.47433 4.5 7.64286 5.30589 7.64286 6.3C7.64286 7.29411 8.47433 8.1 9.5 8.1Z" fill="#FF5C31"/>
</svg>
