<svg width="18" height="18" viewBox="0 0 18 18" fill="none" xmlns="http://www.w3.org/2000/svg">
<path fill-rule="evenodd" clip-rule="evenodd" d="M16.7057 6.44059L8.85959 1.10672C8.64015 0.964428 8.3598 0.964428 8.14036 1.10672L0.294256 6.44059C0.108984 6.56316 -0.0020013 6.77379 2.73393e-05 6.99898V15.6665C2.73393e-05 16.403 0.585497 17 1.30771 17H15.6922C16.4144 17 16.9999 16.403 16.9999 15.6665V6.99898C17.0019 6.77379 16.891 6.56316 16.7057 6.44059ZM5.94182 11.6661L1.30771 14.9998V8.29078L5.94182 11.6661ZM7.28219 12.3329H9.71775L14.3437 15.6665H2.65626L7.28219 12.3329ZM11.0581 11.6661L15.6922 8.29078V14.9998L11.0581 11.6661Z" fill="#FF5C31"/>
</svg>
