<svg width="18" height="18" viewBox="0 0 18 18" fill="none" xmlns="http://www.w3.org/2000/svg">
<path fill-rule="evenodd" clip-rule="evenodd" d="M16.175 12.3167C15.15 12.3167 14.1583 12.15 13.2333 11.85C12.9376 11.7498 12.6107 11.8275 12.3917 12.05L11.0833 13.6917C8.725 12.5667 6.51667 10.4417 5.34167 8L6.96667 6.61667C7.19167 6.38333 7.25833 6.05833 7.16667 5.76667C6.85833 4.84167 6.7 3.85 6.7 2.825C6.7 2.375 6.325 2 5.875 2H2.99167C2.54167 2 2 2.2 2 2.825C2 10.5667 8.44167 17 16.175 17C16.7667 17 17 16.475 17 16.0167V13.1417C17 12.6917 16.625 12.3167 16.175 12.3167Z" fill="#FF5C31"/>
</svg>
