<svg width="145" height="32" viewBox="0 0 145 32" fill="none" xmlns="http://www.w3.org/2000/svg">
<path fill-rule="evenodd" clip-rule="evenodd" d="M0 15V32H5.83893V19.9796H11.1761C13.1528 19.9796 14.871 19.5804 16.3308 18.7821C17.7905 17.9837 18.9309 16.854 19.752 15.3929C20.5731 13.9317 20.9837 12.2371 20.9837 10.309C20.9837 8.50146 20.6187 6.89723 19.8889 5.49636C19.159 4.09548 18.0642 2.99587 16.6045 2.19752C15.1447 1.39917 13.3353 1 11.1761 1H0V6H5.99533H10.6717C12.0506 6 13.1148 6.3886 13.8642 7.1658C14.6136 7.94301 14.9883 8.98446 14.9883 10.2902C14.9883 11.7513 14.6211 12.9016 13.8867 13.7409C13.1523 14.5803 12.0806 15 10.6717 15H5.99533H0Z" fill="#FF5C31"/>
<path fill-rule="evenodd" clip-rule="evenodd" d="M28.4444 28.0789C30.7537 30.693 33.9291 32 37.9704 32C42.0117 32 45.187 30.693 47.4963 28.0789C49.8056 25.4648 50.9602 21.4385 50.9602 16C50.9602 10.5315 49.8056 6.49765 47.4963 3.89859C45.187 1.29953 42.0117 0 37.9704 0C33.9291 0 30.7537 1.29953 28.4444 3.89859C26.1351 6.49765 24.9805 10.5315 24.9805 16C24.9805 21.4385 26.1351 25.4648 28.4444 28.0789ZM43.2277 24.3735C42.0696 26.1245 40.3171 27 37.9704 27C35.6541 27 33.9092 26.1245 32.7359 24.3735C31.5625 22.6224 30.9758 20.2054 30.9758 17.1224V14.8776C30.9758 11.7946 31.5625 9.37755 32.7359 7.62653C33.9092 5.87551 35.6541 5 37.9704 5C40.3171 5 42.0696 5.87551 43.2277 7.62653C44.3858 9.37755 44.9649 11.7946 44.9649 14.8776V17.1224C44.9649 20.2054 44.3858 22.6224 43.2277 24.3735Z" fill="#FF5C31"/>
<path d="M55.957 32V1H61.7707V26.5773H74.9422V32H55.957Z" fill="#FF5C31"/>
<path d="M78.9395 32V1H84.9348V32H78.9395Z" fill="#FF5C31"/>
<path d="M96.5539 32V6.1516H88.9316V1H109.915V6.1516H102.293V32H96.5539Z" fill="#FF5C31"/>
<path d="M113.912 32V1H119.907V32H113.912Z" fill="#FF5C31"/>
<path d="M131.527 32V6.1516H123.904V1H144.888V6.1516H137.266V32H131.527Z" fill="#FF5C31"/>
</svg>
