<svg width="50" height="50" viewBox="0 0 50 50" fill="none" xmlns="http://www.w3.org/2000/svg">
<g clip-path="url(#clip0_0_1788)">
<circle cx="25" cy="25" r="24.5" stroke="#FF5C31"/>
<path d="M32.9297 21.4375C33.7109 20.8516 34.4141 20.1484 34.9609 19.3281C34.2578 19.6406 33.4375 19.875 32.6172 19.9531C33.4766 19.4453 34.1016 18.6641 34.4141 17.6875C33.6328 18.1562 32.7344 18.5078 31.8359 18.7031C31.0547 17.8828 30 17.4141 28.8281 17.4141C26.5625 17.4141 24.7266 19.25 24.7266 21.5156C24.7266 21.8281 24.7656 22.1406 24.8438 22.4531C21.4453 22.2578 18.3984 20.6172 16.3672 18.1562C16.0156 18.7422 15.8203 19.4453 15.8203 20.2266C15.8203 21.6328 16.5234 22.8828 17.6562 23.625C16.9922 23.5859 16.3281 23.4297 15.7812 23.1172V23.1562C15.7812 25.1484 17.1875 26.7891 19.0625 27.1797C18.75 27.2578 18.3594 27.3359 18.0078 27.3359C17.7344 27.3359 17.5 27.2969 17.2266 27.2578C17.7344 28.8984 19.2578 30.0703 21.0547 30.1094C19.6484 31.2031 17.8906 31.8672 15.9766 31.8672C15.625 31.8672 15.3125 31.8281 15 31.7891C16.7969 32.9609 18.9453 33.625 21.2891 33.625C28.8281 33.625 32.9297 27.4141 32.9297 21.9844C32.9297 21.7891 32.9297 21.6328 32.9297 21.4375Z" fill="#FF5C31"/>
</g>
<defs>
<clipPath id="clip0_0_1788">
<rect width="50" height="50" fill="white"/>
</clipPath>
</defs>
</svg>
