<svg width="50" height="50" viewBox="0 0 50 50" fill="none" xmlns="http://www.w3.org/2000/svg">
<g clip-path="url(#clip0_0_1791)">
<circle cx="25" cy="25" r="24.5" stroke="#FF5C31"/>
<path d="M31.8438 19.3281C30.2422 17.6875 28.0547 16.75 25.7109 16.75C20.9453 16.75 17.0391 20.6562 17.0391 25.4219C17.0391 26.9844 17.4688 28.4688 18.2109 29.7578L17 34.25L21.5703 33.0781C22.8594 33.7422 24.2656 34.1328 25.7109 34.1328C30.5156 34.1328 34.5 30.2266 34.5 25.4609C34.5 23.1172 33.4844 20.9688 31.8438 19.3281ZM25.7109 32.6484C24.4219 32.6484 23.1719 32.2969 22.0391 31.6328L21.8047 31.4766L19.0703 32.2188L19.8125 29.5625L19.6172 29.2891C18.9141 28.1172 18.5234 26.7891 18.5234 25.4219C18.5234 21.4766 21.7656 18.2344 25.75 18.2344C27.6641 18.2344 29.4609 18.9766 30.8281 20.3438C32.1953 21.7109 33.0156 23.5078 33.0156 25.4609C33.0156 29.4062 29.6953 32.6484 25.7109 32.6484ZM29.6953 27.2578C29.4609 27.1406 28.4062 26.6328 28.2109 26.5547C28.0156 26.4766 27.8594 26.4375 27.7031 26.6719C27.5859 26.8672 27.1562 27.375 27.0391 27.5312C26.8828 27.6484 26.7656 27.6875 26.5703 27.5703C25.2812 26.9453 24.4609 26.4375 23.6016 24.9922C23.3672 24.6016 23.8359 24.6406 24.2266 23.8203C24.3047 23.6641 24.2656 23.5469 24.2266 23.4297C24.1875 23.3125 23.7188 22.2578 23.5625 21.8281C23.3672 21.3984 23.2109 21.4375 23.0547 21.4375C22.9375 21.4375 22.7812 21.4375 22.6641 21.4375C22.5078 21.4375 22.2734 21.4766 22.0781 21.7109C21.8828 21.9453 21.3359 22.4531 21.3359 23.5078C21.3359 24.6016 22.0781 25.6172 22.1953 25.7734C22.3125 25.8906 23.7188 28.0781 25.9062 29.0156C27.2734 29.6406 27.8203 29.6797 28.5234 29.5625C28.9141 29.5234 29.7734 29.0547 29.9688 28.5469C30.1641 28.0391 30.1641 27.6094 30.0859 27.5312C30.0469 27.4141 29.8906 27.375 29.6953 27.2578Z" fill="#FF5C31"/>
</g>
<defs>
<clipPath id="clip0_0_1791">
<rect width="50" height="50" fill="white"/>
</clipPath>
</defs>
</svg>
